<?xml version="1.0" encoding="UTF-8" standalone="no"?>
<!-- Created with Inkscape (http://www.inkscape.org/) -->

<svg
   width="210mm"
   height="297mm"
   viewBox="0 0 210 297"
   version="1.1"
   id="svg442"
   xml:space="preserve"
   inkscape:version="1.2 (dc2aedaf03, 2022-05-15)"
   sodipodi:docname="logo.svg"
   xmlns:inkscape="http://www.inkscape.org/namespaces/inkscape"
   xmlns:sodipodi="http://sodipodi.sourceforge.net/DTD/sodipodi-0.dtd"
   xmlns="http://www.w3.org/2000/svg"
   xmlns:svg="http://www.w3.org/2000/svg"><sodipodi:namedview
     id="namedview444"
     pagecolor="#ffffff"
     bordercolor="#000000"
     borderopacity="0.25"
     inkscape:showpageshadow="2"
     inkscape:pageopacity="0.0"
     inkscape:pagecheckerboard="0"
     inkscape:deskcolor="#d1d1d1"
     inkscape:document-units="mm"
     showgrid="false"
     inkscape:zoom="0.66142459"
     inkscape:cx="500.43498"
     inkscape:cy="306.9133"
     inkscape:window-width="1366"
     inkscape:window-height="705"
     inkscape:window-x="-8"
     inkscape:window-y="-8"
     inkscape:window-maximized="1"
     inkscape:current-layer="layer1" /><defs
     id="defs439" /><g
     inkscape:label="Camada 1"
     inkscape:groupmode="layer"
     id="layer1"><path
       style="fill:#000000;stroke-width:0.658934"
       d="m 145.96793,97.690287 -27.1233,0.160029 -0.46317,-0.644893 -0.4632,-0.644885 1.94274,-2.26577 1.94276,-2.265764 1.09526,-0.764063 1.09529,-0.76406 h 20.81918 20.81921 V 72.774676 55.048463 h -14.59235 -14.59237 l -3.50975,-2.825005 -3.50975,-2.825006 0.38558,-0.536863 0.38558,-0.536863 h 21.63144 21.63147 l -0.18567,24.602761 -0.18563,24.602763 z m 0.46065,-1.688157 h 25.59716 V 72.774676 49.547224 h -19.53428 -19.5343 v 0.370466 0.370466 l 1.93406,1.310467 1.93407,1.310469 14.93644,0.305624 14.93648,0.305625 v 19.254335 19.254336 l -21.25032,0.162072 -21.2503,0.162054 -0.98654,0.704539 -0.98653,0.704537 -0.69655,1.119959 -0.69654,1.119957 z m -97.88324,0.611246 h -2.722964 l -0.473557,-0.407499 -0.47356,-0.407497 v -1.972103 -1.972095 l 1.123606,-0.371022 1.123601,-0.371022 h 2.072918 2.072917 v 1.222497 1.222497 h -1.775844 -1.775845 v 0.61125 0.611249 h 1.775845 1.775844 v 0.916873 0.916872 z m 0.177582,-0.659505 1.361482,0.04822 -0.429161,-0.369297 -0.429162,-0.369292 -0.932321,0.321039 -0.932316,0.321041 1.361478,0.04822 z m 11.411071,0.659505 h -3.182987 v -2.750618 -2.75062 h 1.065507 1.065508 v 1.833747 1.833746 h 1.065505 1.065507 v -1.878562 -1.878572 l 1.234933,0.204654 1.234936,0.204652 0.248648,1.111012 0.248646,1.111011 -0.431608,1.479772 -0.431607,1.479778 z m -0.04566,-0.659505 1.361482,0.04822 -0.429164,-0.369297 -0.429162,-0.369292 -0.932318,0.321039 -0.932319,0.321041 1.361481,0.04822 z m -1.997825,-1.339785 0.429163,-0.369297 -0.373085,-0.802265 -0.373081,-0.802264 -0.05608,1.171563 -0.05607,1.171555 0.429165,-0.369292 z m 14.105545,1.898991 -3.169301,-0.05474 V 93.785242 91.11214 h 3.154598 3.154599 l 0.467499,0.650914 0.467499,0.650906 -0.452799,2.076932 -0.452798,2.076931 -3.169297,-0.05477 z m 1.447895,-0.510947 h 0.35517 V 95.696504 95.39088 h -0.35517 -0.355168 v 0.305624 0.305626 z m 0,-1.222499 h 0.35517 v -0.305623 -0.305626 h -0.35517 -0.355168 v 0.305626 0.305623 z m 10.572306,1.833745 h -3.195442 l 0.218428,-2.597805 0.218427,-2.597808 1.953429,-0.193411 1.953431,-0.193412 v 0.957472 0.957473 h 1.017639 1.017638 l 0.448888,1.217026 0.448886,1.217026 -0.442941,0.61672 -0.44294,0.616719 z m -0.272407,-0.707758 h 1.775847 l -0.887923,-0.308307 -0.887924,-0.308309 -0.887923,0.308309 -0.887922,0.308307 z m 2.486184,-1.125987 h 0.355168 v -0.305623 -0.305626 h -0.355168 -0.355169 v 0.305626 0.305623 z m -2.131013,-0.611249 h 0.355168 v -0.305624 -0.305626 h -0.355168 -0.355171 v 0.305626 0.305624 z m 12.210496,2.327177 -3.416933,0.187812 0.220414,-2.632807 0.220416,-2.632801 2.355002,-0.194517 2.355004,-0.194519 1.055374,0.7537 1.055369,0.753707 -0.21385,1.885812 -0.213862,1.885807 z m -0.193939,-0.541688 1.361472,0.04822 -0.429162,-0.369297 -0.429162,-0.369292 -0.932321,0.321039 -0.932321,0.321041 1.361494,0.04822 z m -1.953436,-1.377988 0.473553,-0.407501 -0.473553,-0.4075 -0.473565,-0.407497 v 0.814997 0.814996 z m 2.012624,0.203748 h 1.065507 v -0.611249 -0.61125 h -1.06551 -1.065506 v 0.61125 0.611249 z m 12.034887,1.833745 h -3.23736 l 0.21844,-2.59253 0.21842,-2.592539 1.26255,-0.206126 1.26253,-0.206131 1.74413,1.423353 1.74411,1.423355 0.0133,1.375309 0.0133,1.375309 h -3.23736 z m -0.31432,-0.707758 h 1.77584 l -0.88791,-0.308307 -0.88793,-0.308309 -0.88792,0.308309 -0.88793,0.308307 z m 0.35518,-1.737236 h 0.35515 v -0.305624 -0.305626 h -0.35515 -0.35518 v 0.305626 0.305624 z m -55.98536,-7.955243 -0.131334,-0.0091 -1.730703,-0.75505 -1.730702,-0.755053 -5.23018,-10.330159 -5.230178,-10.330158 0.382312,-0.857313 0.382313,-0.85731 3.683138,0.184992 3.683137,0.184993 3.231344,6.593491 3.231349,6.593492 3.732662,-6.402666 3.732665,-6.402666 1.258956,-0.630675 1.258957,-0.630674 -0.887921,-0.01858 -0.887924,-0.01858 -1.420677,-1.222499 -1.420674,-1.222496 v -3.427266 -3.427265 l -1.123605,0.371021 -1.123605,0.371021 h -1.330121 -1.330125 l -0.21004,4.12593 -0.21004,4.125929 h -2.486183 -2.486182 v -5.022202 -5.022205 l 1.190051,-1.022814 1.190054,-1.022812 3.646544,-0.30151 3.646548,-0.301509 0.400526,1.317964 0.400527,1.317963 0.920643,-1.083925 0.920641,-1.083925 6.466642,-0.214141 6.466644,-0.214141 1.795675,1.012445 1.795676,1.012447 -0.213325,3.17481 -0.213328,3.174814 -6.39304,0.342929 -6.393043,0.342928 6.570627,0.115502 6.570625,0.115502 v 1.833748 1.833745 h -5.761397 -5.761398 l 1.472283,1.069685 1.472284,1.069686 3.181895,6.093874 3.181894,6.093882 0.684424,-1.509516 0.684423,-1.50951 2.876457,-5.348426 2.876459,-5.348426 h 3.542289 3.54229 l 0.426826,0.594282 0.426827,0.594281 -5.549452,10.558794 -5.549451,10.55879 -1.873281,0.772595 -1.87328,0.772593 -1.87329,-0.612868 -1.873289,-0.612874 -3.585009,-6.575619 -3.585009,-6.575619 -3.860326,6.592165 -3.860327,6.592166 -1.803408,0.590008 -1.803409,0.590006 z m 0.220824,-1.824737 h 2.200502 l 3.998282,-7.359148 3.998281,-7.359142 1.036363,0.17697 1.03636,0.176974 3.319974,6.214267 3.319972,6.214266 0.963318,0.99881 0.963317,0.998813 1.782423,-0.183717 1.782425,-0.183717 3.492965,-6.723737 3.492966,-6.723736 1.690537,-3.244894 1.690536,-3.244892 -2.497221,0.188649 -2.497221,0.188649 -3.393241,6.418113 -3.39324,6.418111 -1.063913,0.176363 -1.063911,0.176366 -3.590049,-6.900102 -3.59005,-6.900098 -2.226454,-0.191892 -2.226455,-0.19189 -3.859675,7.068441 -3.859676,7.068438 H 53.176284 52.159477 L 48.782121,70.94093 45.404764,64.217193 h -2.395766 -2.395764 v 0.187067 0.187067 l 3.9684,7.91198 3.968399,7.911978 0.967719,1.986558 0.96772,1.986559 z m 16.873531,-23.888346 5.14995,0.04965 v -0.61125 -0.61125 l -5.50512,-0.0083 -5.505119,-0.0083 -1.775847,-0.326806 -1.775844,-0.326806 2.131015,0.896757 2.131014,0.896755 5.149951,0.04965 z m -9.056812,-2.40012 0.355171,-0.0047 0.716991,-1.370541 0.716988,-1.370541 -0.707847,-1.375309 -0.707846,-1.37531 h -0.364314 -0.364312 v 2.750619 2.750619 l 0.355168,-0.0047 z m 13.518716,-3.051473 h 0.688046 V 53.214716 51.38097 H 74.41238 74.115309 l -1.301187,-0.409272 -1.30119,-0.409271 1.329244,1.303379 1.329242,1.303378 -0.419027,0.939638 -0.419026,0.939641 z m -22.0151,-2.329738 1.448347,-1.337755 h 0.801058 0.801055 l -0.38974,-0.335373 -0.389739,-0.335372 -1.859664,0.401637 -1.859665,0.401635 v 1.271492 1.271491 z m 15.557842,1.107239 h 4.303951 v -0.611248 -0.611248 h -3.864936 -3.864939 l -0.439012,0.611248 -0.439013,0.611248 z m -6.037873,-1.833745 h 1.023584 l 0.398073,-0.554245 0.398073,-0.554244 -1.421658,0.31991 -1.421658,0.319911 v 0.234334 0.234334 z m 43.372532,33.394554 -4.972362,0.0815 L 98.1506,85.205527 96.374763,84.942788 94.455956,84.298153 92.537158,83.653518 91.292656,82.0344 90.048157,80.415281 89.75975,74.90142 l -0.288405,-5.51386 1.083776,-2.232019 1.08378,-2.232018 1.927355,-1.086686 1.927351,-1.086688 8.396353,-0.257601 8.39635,-0.257604 3.88623,0.417822 3.88624,0.41782 1.85976,1.483138 1.85976,1.48314 -0.20535,5.355461 -0.20536,5.355464 -12.65737,0.167093 -12.657394,0.167093 0.23433,1.055407 0.234331,1.055413 5.890133,0.178056 5.89017,0.178058 -0.21532,2.878186 -0.2153,2.878188 z m -1.90402,-1.648367 5.90969,0.03875 -0.22699,-1.375309 -0.22698,-1.375309 -4.94276,-0.183646 -4.942741,-0.183643 -0.953816,-0.681164 -0.953815,-0.681169 0.213858,-1.885813 0.213858,-1.885811 12.608496,-0.166909 12.60848,-0.166926 V 71.20466 67.217863 l -1.74357,-1.500335 -1.74354,-1.500341 H 107.73717 96.659375 l -2.009656,0.894263 -2.00966,0.89427 -0.441249,0.98947 -0.44125,0.989471 v 5.926491 5.926491 l 1.141514,1.402393 1.141514,1.402395 1.522251,0.528614 1.522252,0.528614 5.909699,0.03875 z m 3.62068,-10.361839 -8.938423,0.0094 -0.473554,-0.4075 -0.473564,-0.407495 v -1.962653 -1.962652 l 1.157149,-0.826386 1.157149,-0.826382 7.189313,-0.191652 7.1893,-0.191645 1.77585,0.804312 1.77585,0.804319 0.23028,2.061332 0.23028,2.061332 -0.94061,0.513174 -0.94062,0.513174 -8.9384,0.0094 z m 0.0592,-1.824389 h 8.52404 v -1.528122 -1.528122 h -8.09287 -8.092886 l -0.431174,0.966867 -0.431162,0.966862 v 0.56126 0.561255 z m 11.68952,13.930145 -5.00341,0.177043 -0.5017,-0.431732 -0.50174,-0.431731 v -2.648748 -2.648743 h 5.72162 5.72165 l -0.21653,2.903431 -0.21649,2.903432 z M 118.04,83.165905 h 3.5517 v -0.916874 -0.916873 h -3.5517 -3.55168 v 0.916873 0.916874 z m 25.7148,2.382427 -6.89086,-0.06257 -2.131,-0.442537 -2.13101,-0.442539 -1.65839,-0.766591 -1.65839,-0.766591 -1.00538,-2.070539 -1.00538,-2.070536 V 64.236823 49.547219 h 0.91464 0.91462 l 3.3474,2.924427 3.3474,2.924427 v 3.493686 3.493684 l 7.99132,0.01457 7.99128,0.01457 2.77564,0.554005 2.77564,0.554005 1.84157,1.584673 1.84156,1.584674 v 7.271849 7.271849 l -1.68408,1.542555 -1.68407,1.542553 -3.50085,0.646059 -3.50084,0.646066 -6.89082,-0.06257 z m 0.0999,-2.620668 11.47799,-0.152496 1.36162,-0.313882 1.36163,-0.313882 0.36669,-1.171684 0.36672,-1.171686 v -5.806862 -5.806863 l -0.36672,-1.171684 -0.36669,-1.171685 -1.00645,-0.192055 -1.00646,-0.192054 -3.19652,-0.596199 -3.19651,-0.5962 -7.59422,-0.02666 -7.59422,-0.02658 -0.35517,-0.494516 -0.35516,-0.494514 -0.15478,-4.11379 -0.15476,-4.113792 -0.70724,-0.376127 -0.70724,-0.376127 0.55856,0.858504 0.55859,0.858505 -2.1958,-2.139372 -2.19581,-2.139371 -0.0289,11.995312 -0.0289,11.995315 1.03398,2.521843 1.03401,2.521847 h -0.43375 -0.43377 l 1.24061,1.179624 1.24061,1.179625 11.478,-0.152496 z m 13.60902,-0.984257 h -0.35519 v -0.305624 -0.305625 h 0.35519 0.35515 v 0.305625 0.305624 z m -14.12833,-0.702832 -2.91979,-0.09158 -2.00565,-0.25898 -2.00564,-0.258974 -1.4115,-1.214589 -1.41147,-1.214587 0.22061,-1.64391 0.22061,-1.643906 4.79479,-0.180739 4.79477,-0.180741 V 73.969251 73.38593 h -4.11996 -4.11997 l -0.8524,-0.733497 -0.85241,-0.733499 v -1.894872 -1.894871 l 0.85241,-0.733497 0.8524,-0.7335 h 5.4415 5.4415 l 3.15752,0.372416 3.15751,0.372415 1.55883,1.957592 1.55881,1.957591 v 2.568553 2.568559 l -1.57365,2.065758 -1.57365,2.065758 -3.14268,0.370662 -3.14269,0.370666 z m 0.95156,-2.36277 6.7837,-0.0094 0.92299,-0.503792 0.92298,-0.50379 -0.21265,-4.224029 -0.21262,-4.224035 -8.34647,-0.172212 -8.34649,-0.172207 v 1.241892 1.241899 h 4.97238 4.97236 v 2.139371 2.139369 h -4.97236 -4.97238 v 0.794625 0.794623 l 0.85241,0.733499 0.85239,0.733498 6.78376,-0.0094 z m 13.17677,-12.215616 h -0.35519 v -0.305625 -0.305625 h 0.35519 0.35515 v 0.305625 0.305625 z M 40.9684,61.772198 h -2.486182 v -4.297925 -4.297924 l -1.065507,-0.351838 -1.065506,-0.351838 v -1.481908 -1.48191 l 1.065506,-0.351838 1.065507,-0.351836 v -1.462724 -1.462726 h 2.486182 2.486185 v 1.528122 1.528122 h 2.176019 2.17602 l -0.222592,1.986558 -0.222588,1.986559 -1.953431,0.193413 -1.953428,0.193412 v 4.238141 4.23814 z m 0.174956,-5.170132 0.25187,-4.253258 0.806419,-0.836131 0.806417,-0.83613 -0.760072,-0.411849 -0.760073,-0.41185 -0.354942,-1.222497 -0.354942,-1.222498 -0.0824,1.375308 -0.0824,1.375313 h -0.710328 -0.710338 v 0.916872 0.916873 h 0.710338 0.710338 l 0.139125,4.431553 0.139124,4.431554 z m 39.573559,5.170132 h -2.516596 l 0.207997,-8.099046 0.207998,-8.099045 2.308599,-0.19154 2.308599,-0.191541 v 8.290586 8.290586 z M 80.392159,60.5497 h 0.710337 V 55.965335 51.38097 h -0.710337 -0.710338 v 4.584365 4.584365 z m 0.35517,-12.224974 h 1.065505 v -0.916873 -0.916874 h -1.065505 -1.065508 v 0.916874 0.916873 z m 6.570625,13.331559 -2.663766,0.189709 v -4.859171 -4.859172 l 1.357915,-1.443026 1.357915,-1.443027 h 6.785598 6.785604 l 1.24225,1.068956 1.24223,1.068956 0.0262,5.043532 0.0262,5.043533 h -2.4861 -2.486193 l -0.210042,-4.12593 -0.210031,-4.125929 h -3.841953 -3.841948 l -0.210041,4.125929 -0.210039,4.12593 z m 0.09361,-4.609397 0.439129,-3.197189 1.236141,-1.234365 1.236138,-1.234364 h 3.862261 3.862251 l 1.472239,1.610553 1.472227,1.610554 V 53.282019 51.96196 l -1.953423,-0.649442 -1.953436,-0.649441 -4.095022,0.245797 -4.095016,0.245795 -0.84381,0.7261 -0.843809,0.726102 -0.117506,3.818602 -0.117505,3.818603 z m 26.397866,4.72531 h -6.91458 l -1.1756,-1.117815 -1.17561,-1.117816 v -2.209392 -2.209392 l 1.57874,-0.951534 1.57873,-0.951533 5.70223,-0.106782 5.70223,-0.106782 -3.01895,-0.23398 -3.01893,-0.233981 v -1.872067 -1.872068 l 4.28354,0.266623 4.28354,0.26662 1.22159,1.051175 1.22156,1.051173 v 4.005291 4.005292 l -1.67694,1.168492 -1.67698,1.168492 z m -0.0314,-1.405666 h 3.90686 l -1.95343,-0.25464 -1.95343,-0.254641 -1.95341,0.254641 -1.95343,0.25464 z m -6.01787,-0.631829 h 1.02297 l -0.7829,-0.811743 -0.7829,-0.811743 0.37233,-1.225145 0.37231,-1.225143 -0.7534,-0.400677 -0.7534,-0.400675 0.50684,0.705691 0.50684,0.705692 h -0.75226 -0.75225 v 1.222497 1.222497 h 0.75225 0.75226 l -0.36582,0.509375 -0.36587,0.509374 z m 12.60089,-0.0154 1.58586,-0.20826 -0.12428,-0.412809 -0.12427,-0.412807 -0.23639,-0.610232 -0.23638,-0.610229 -1.22517,1.231298 -1.22518,1.2313 z m 0.87552,-0.392065 h -0.35515 v -0.305659 -0.305625 h 0.35515 0.35518 v 0.305625 0.305625 z m -7.10337,-1.222497 h 4.6172 v -0.611248 -0.611249 h -4.6172 -4.61718 v 0.611249 0.611248 z m 7.14532,-1.833747 h 0.31323 V 54.15313 52.035266 l -1.59826,-0.721698 -1.59825,-0.721696 1.32924,1.288673 1.32924,1.288674 -0.44362,0.9948 -0.44363,0.994799 0.39939,0.556089 0.39941,0.556087 z"
       id="path756" /><path
       style="fill:#000080;stroke-width:0.755944"
       d="m 274.24264,314.56218 c -3.14208,-3.34864 -6.56926,-9.12808 -16.08774,-27.12959 -12.92413,-24.44234 -12.38452,-23.74084 -18.39298,-23.91123 l -2.63968,-0.0749 -14.81322,27.21399 -14.81323,27.21398 -8.30995,0.17004 -8.30996,0.17003 -18.14266,-36.69451 c -9.97846,-20.18198 -18.25605,-37.0121 -18.39464,-37.40028 -0.14672,-0.41095 3.4064,-0.70577 8.50585,-0.70577 h 8.75783 l 12.65533,25.32413 12.65534,25.32413 4.16294,-0.0263 4.16295,-0.0263 14.47137,-26.62078 14.47137,-26.62077 2.53737,0.1134 c 1.39555,0.0624 5.08868,0.3394 8.20695,0.61562 l 5.66958,0.50221 13.50633,26.06449 13.50631,26.06449 3.50243,-0.5051 c 1.92632,-0.2778 3.98238,-0.76206 4.56901,-1.07614 0.77823,-0.41666 24.48023,-44.04126 25.94572,-47.75426 0.1863,-0.472 17.33053,-2.18259 17.79573,-1.77558 0.11403,0.0998 -8.44877,16.81336 -19.02845,37.14131 l -19.2358,36.95991 -2.89392,0.47112 c -9.80944,1.59692 -9.6484,1.63171 -14.02018,-3.02748 z"
       id="path758"
       transform="scale(0.26458333)" /><path
       style="fill:#000080;stroke-width:0.755944"
       d="m 360.9633,313.88945 c -4.77269,-1.76426 -5.71761,-2.48023 -9.63567,-7.30091 l -4.34406,-5.34482 0.005,-21.92238 c 0.005,-21.41767 0.0457,-22.01019 1.78071,-25.73622 1.71419,-3.68122 2.02697,-3.92436 8.99535,-6.99248 l 7.21942,-3.17865 h 42.07764 42.07764 l 6.37137,5.42521 6.37136,5.4252 v 14.52644 c 0,12.54886 -0.16278,14.5889 -1.19574,14.98528 -0.65766,0.25237 -9.78675,0.45885 -20.28687,0.45885 -10.50012,0 -31.38044,0.22501 -46.40072,0.50003 l -27.30959,0.50002 -0.4479,3.09071 c -0.24634,1.69989 -0.51408,5.09807 -0.59497,7.55152 l -0.14708,4.4608 3.40175,2.46045 3.40175,2.46045 17.00874,0.48875 c 9.35481,0.26881 17.74405,0.63997 18.64277,0.82479 1.25811,0.25874 1.74906,1.07571 2.13407,3.55119 0.27502,1.76833 0.6682,3.81045 0.87373,4.53804 0.35021,1.23978 -1.04255,1.31853 -22.16659,1.25336 -22.29649,-0.0688 -22.59751,-0.0907 -27.83188,-2.02563 z m 80.0607,-38.42691 c 2.47811,-1.38504 3.41493,-2.33779 3.15904,-3.21276 -0.20007,-0.68411 -0.59234,-4.01063 -0.87172,-7.39227 -0.27937,-3.38165 -0.72261,-6.48297 -0.98498,-6.89183 -0.26236,-0.40886 -3.19843,-2.00849 -6.52458,-3.55474 l -6.04755,-2.81136 -27.75367,0.53308 -27.75366,0.53308 -4.56295,3.32021 -4.56294,3.32021 v 7.61858 c 0,11.44452 -3.59035,10.45134 37.89098,10.48159 l 34.48922,0.0251 z"
       id="path760"
       transform="scale(0.26458333)" /><path
       style="fill:#000080;stroke-width:0.755944"
       d="m 496.34389,309.53093 c -2.77121,-2.56067 -3.99177,-4.12952 -3.21276,-4.12952 0.69096,0 1.2563,-0.2708 1.2563,-0.60178 0,-0.33098 -1.70088,-4.72282 -3.77972,-9.75965 l -3.77972,-9.15787 V 241.0383 196.1945 l 7.91262,7.8857 c 7.45802,7.43264 10.44476,9.41015 7.55769,5.00393 -1.24367,-1.89809 -0.85517,-2.50949 0.87494,-1.37692 0.5497,0.35985 1.04503,6.01138 1.40691,16.05224 0.49102,13.6244 0.73726,15.74803 2.03786,17.5757 l 1.47936,2.07884 28.86339,-0.0153 28.86338,-0.0153 15.49686,2.85007 c 8.52327,1.56754 14.73146,2.95878 13.79598,3.09164 -2.49095,0.35377 -2.32313,3.16018 0.18898,3.16018 1.03942,0 1.91575,-0.42522 1.94737,-0.94493 0.0316,-0.51971 0.51602,0.24568 1.07641,1.70088 0.777,2.01767 1.01889,8.29895 1.01889,26.45804 0,18.15909 -0.24189,24.44037 -1.01889,26.45804 -0.56039,1.45519 -1.04478,2.22059 -1.07641,1.70088 -0.0316,-0.51972 -0.90795,-0.94493 -1.94737,-0.94493 -2.54779,0 -2.7309,2.99198 -0.18898,3.08807 0.93548,0.0354 -0.17009,0.53242 -2.45682,1.10459 -5.05079,1.26376 -17.71604,1.72971 -59.71958,2.19704 l -32.12763,0.35745 z m 67.81083,-3.02142 c 5.49164,-0.63785 10.66667,-1.30372 11.50004,-1.4797 0.83838,-0.17704 4.13082,-3.83643 7.37046,-8.19193 l 5.85522,-7.87197 v -9.8281 -9.8281 l -5.98801,-7.49452 -5.98801,-7.49453 -11.96566,-1.31581 c -8.53871,-0.93897 -17.97297,-1.31004 -32.94094,-1.29565 l -20.97527,0.0202 -3.02595,2.73377 -3.02596,2.73376 v 7.46131 7.4613 l 2.83479,2.63552 2.83479,2.63552 16.06382,0.0205 16.06381,0.0204 v 1.78711 c 0,1.55298 -0.45948,1.85008 -3.50726,2.26783 -1.92899,0.26439 -7.11666,0.51674 -11.52815,0.56077 -4.41149,0.044 -11.08246,0.29916 -14.82438,0.56696 l -6.8035,0.48691 -0.81241,6.28718 -0.81241,6.28719 5.34808,4.75737 5.34807,4.75737 8.31538,0.88812 c 17.18101,1.83503 27.62377,1.94577 40.66345,0.43122 z"
       id="path762"
       transform="scale(0.26458333)" /><path
       style="fill:#ff0000;stroke-width:0.755944"
       d="m 433.15596,310.69302 v -3.02378 h 12.85105 12.85105 v 3.02378 3.02377 h -12.85105 -12.85105 z"
       id="path833"
       transform="scale(0.26458333)" /><path
       style="fill:#ff0000;stroke-width:0.755944"
       d="m 303.32256,175.59352 c 1.14337,-0.1732 3.01433,-0.1732 4.15769,0 1.14337,0.17321 0.20789,0.31492 -2.07884,0.31492 -2.28673,0 -3.22221,-0.14171 -2.07885,-0.31492 z"
       id="path835"
       transform="scale(0.26458333)" /><path
       style="fill:#ff0000;stroke-width:0.755944"
       d="m 301.62169,179.15875 v -3.02378 h 3.77972 3.77972 v 3.02378 3.02377 h -3.77972 -3.77972 z"
       id="path837"
       transform="scale(0.26458333)" /><path
       style="fill:#4d4d4d;stroke-width:0.755944"
       d="m 458.82461,360.39634 c 0.89481,-1.35125 1.96472,-3.13717 2.37759,-3.96871 0.41287,-0.83154 2.53335,-2.75742 4.71217,-4.27974 l 3.96151,-2.76785 80.29074,-0.55697 80.29074,-0.55698 v -73.21451 -73.21451 l -4.34668,-0.004 c -2.39067,-0.002 -27.81874,-0.51737 -56.50682,-1.14534 l -52.16014,-1.14177 -7.37045,-4.9064 c -4.05375,-2.69853 -7.37046,-5.41479 -7.37046,-6.03614 0,-0.99463 8.81456,-1.12974 73.70455,-1.12974 h 73.70455 v 87.68951 87.68952 H 553.6548 457.1977 Z"
       id="path908"
       transform="scale(0.26458333)" /><path
       style="fill:#0000ff;stroke-width:0.755944"
       d="m 154.15292,207.88462 -0.3183,-11.71713 -2.83479,-0.23462 c -2.75635,-0.22813 -2.83479,-0.31703 -2.83479,-3.21276 0,-2.97054 0.008,-2.97815 3.02378,-2.97815 h 3.02377 l 0.0526,-3.9687 0.0526,-3.96871 1.10197,3.5833 c 0.86405,2.80962 1.67154,3.8755 3.73993,4.93665 l 2.63796,1.35335 -3.03664,2.9652 c -2.98939,2.91906 -3.03809,3.05395 -3.13053,8.67034 -0.0516,3.13783 -0.33362,8.08637 -0.62662,10.99676 -0.46385,4.60734 -0.57389,3.77644 -0.85104,-6.42553 z"
       id="path979"
       transform="scale(0.26458333)" /><path
       style="fill:#0000ff;stroke-width:0.755944"
       d="m 154.34466,203.20787 -0.13207,-7.32256 -2.45682,-0.23688 c -2.08004,-0.20056 -2.49508,-0.5721 -2.70633,-2.42269 -0.27463,-2.40574 0.7923,-3.45429 3.53305,-3.4722 1.12692,-0.007 1.9148,-0.55901 2.16502,-1.51585 0.37587,-1.43734 0.4577,-1.42251 1.83881,0.33328 0.79499,1.01067 2.13157,2.05535 2.97019,2.32151 1.42792,0.45321 1.35814,0.66838 -1.09848,3.38757 -2.6431,2.9256 -3.15048,4.66995 -3.73725,12.84863 -0.13423,1.87096 -0.30348,0.10659 -0.37612,-3.92081 z"
       id="path981"
       transform="scale(0.26458333)" /><path
       style="fill:#0000ff;stroke-width:0.755944"
       d=""
       id="path983"
       transform="scale(0.26458333)" /><path
       style="fill:#0000ff;stroke-width:0.755944"
       d="m 191.25385,199.32022 v -4.1512 l 6.93708,-1.59722 c 4.72999,-1.08906 7.18318,-1.35111 7.71063,-0.82367 0.52744,0.52744 0.0546,0.77355 -1.48625,0.77355 -1.728,0 -3.54253,1.17074 -7.71063,4.97487 l -5.45083,4.97488 z"
       id="path985"
       transform="scale(0.26458333)" /><path
       style="fill:#0000ff;stroke-width:0.267267"
       d="m 277.78901,207.06479 c 0.20541,-0.47774 0.89168,-2.04686 1.52505,-3.48694 l 1.15158,-2.61833 -4.65898,-4.66469 c -2.56244,-2.56557 -4.59715,-4.66468 -4.52159,-4.66468 0.0756,0 2.05872,0.6 4.40703,1.33333 2.34831,0.73334 4.7808,1.33469 5.40554,1.33634 l 1.13588,0.003 v 6.8153 6.8153 h -2.40898 -2.40899 z"
       id="path987"
       transform="scale(0.26458333)" /><path
       style="fill:#0000ff;stroke-width:0.267267"
       d="m 227.44387,209.15075 v -10.30441 l 1.26952,0.003 1.26951,0.003 2.62479,5.20062 2.62478,5.20062 -2.62478,5.01979 -2.62479,5.01978 -1.26951,0.0815 -1.26952,0.0815 z"
       id="path989"
       transform="scale(0.26458333)" /><path
       style="fill:#0000ff;stroke-width:0.267267"
       d="m 228.7802,195.67087 c 0,-0.6831 0.12828,-0.80224 1.13589,-1.05492 1.96132,-0.49184 8.46899,-1.91674 8.75399,-1.91674 0.14971,0 -0.34013,0.84189 -1.08855,1.87087 l -1.36075,1.87087 h -3.72029 -3.72029 z"
       id="path991"
       transform="scale(0.26458333)" /><path
       style="fill:#0000ff;stroke-width:0.267267"
       d="m 259.11496,228.52685 -15.50146,-0.14755 -7.00406,-2.93993 c -3.85223,-1.61696 -6.90444,-2.97489 -6.78268,-3.01762 0.12176,-0.0427 2.54435,0.34815 5.38354,0.86861 l 5.16215,0.94631 h 20.93053 20.93054 v 2.27177 2.27176 l -3.80855,-0.0529 c -2.0947,-0.0291 -10.7842,-0.1193 -19.31001,-0.20045 z"
       id="path993"
       transform="scale(0.26458333)" /><path
       style="fill:#0000ff;stroke-width:0.267267"
       d="m 301.20945,211.54151 v -17.2387 h 2.53903 2.53903 v 17.2387 17.23869 h -2.53903 -2.53903 z"
       id="path995"
       transform="scale(0.26458333)" /><path
       style="fill:#0000ff;stroke-width:0.267267"
       d="m 329.04036,222.23217 c -0.0117,-1.27234 0.69329,-23.12766 0.75148,-23.29597 0.008,-0.0241 1.40455,-1.24717 3.10273,-2.71799 l 3.08759,-2.67422 1.92366,-0.16396 c 1.05801,-0.0902 7.98687,-0.52349 15.39747,-0.9629 l 13.47383,-0.79893 7.43979,2.47461 7.43978,2.47462 v 4.61392 c 0,2.53766 -0.0538,4.61393 -0.11954,4.61393 -0.0657,0 -2.54304,-2.64594 -5.5051,-5.87987 l -5.38557,-5.87986 -14.74034,0.01 -14.74034,0.01 -4.61697,4.60862 -4.61698,4.60861 -1.43836,10.28168 c -0.86164,6.15918 -1.44428,9.6387 -1.45313,8.67807 z"
       id="path997"
       transform="scale(0.26458333)" /><path
       style="fill:#0000ff;stroke-width:0.267267"
       d="m 455.76064,210.45913 -1.39887,-1.99406 1.59932,-3.61491 c 0.87962,-1.9882 1.59932,-3.71768 1.59932,-3.84328 0,-0.12561 -2.07141,-2.24559 -4.60314,-4.71106 -2.53172,-2.46548 -4.47317,-4.43366 -4.31434,-4.37373 0.15884,0.0599 2.6512,1.17756 5.53857,2.48364 l 5.24977,2.37468 v 7.84827 7.84826 l -1.13588,-0.0119 c -1.10578,-0.0116 -1.17295,-0.0647 -2.53475,-2.00593 z"
       id="path999"
       transform="scale(0.26458333)" /><path
       style="fill:#0000ff;stroke-width:0.267267"
       d="m 405.01906,223.85469 c 0.67439,-0.94506 1.22616,-1.78695 1.22616,-1.87086 0,-0.0839 -1.26283,-0.15256 -2.8063,-0.15256 h -2.8063 v -4.54353 -4.54353 h 2.8063 c 1.54347,0 2.8063,-0.0582 2.8063,-0.1293 0,-0.0711 -0.66236,-1.05245 -1.47192,-2.18073 -0.80955,-1.12828 -1.41849,-2.10485 -1.35319,-2.17015 0.21655,-0.21655 4.44521,2.18025 4.34766,2.46425 -0.0526,0.15328 -0.68166,2.2358 -1.39781,4.62781 l -1.30208,4.34911 1.86262,1.93165 c 1.02444,1.06241 2.27509,2.38267 2.77923,2.9339 l 0.91661,1.00225 h -3.41672 -3.41672 z"
       id="path1001"
       transform="scale(0.26458333)" /><path
       style="fill:#0000ff;stroke-width:0.267267"
       d="m 449.80967,225.90385 c 0,-0.11202 1.86008,-2.06086 4.13351,-4.33074 l 4.13351,-4.12705 0.45011,1.05672 c 0.62315,1.46297 2.19495,6.11582 2.10139,6.22054 -0.10322,0.11551 -9.45672,1.38171 -10.21717,1.38311 -0.33074,6.1e-4 -0.60135,-0.0905 -0.60135,-0.20258 z m 9.88887,-2.86988 v -1.2027 h -1.46997 -1.46996 v 1.2027 1.2027 h 1.46996 1.46997 z"
       id="path1003"
       transform="scale(0.26458333)" /><path
       style="fill:#0000ff;stroke-width:0.267267"
       d="m 419.07402,227.82002 c 0.22049,-0.053 2.78882,-0.4016 5.70739,-0.77465 l 5.30649,-0.67828 5.25054,0.67864 c 2.88779,0.37325 5.43094,0.72184 5.65144,0.77465 0.22049,0.0528 -4.71058,0.096 -10.95793,0.096 -6.24736,0 -11.17843,-0.0434 -10.95793,-0.0964 z"
       id="path1005"
       transform="scale(0.26458333)" /></g></svg>
